# xmcd
#
# Track frame offsets: 
#        150
#        21095
#        36916
#        51518
#        73764
#        99718
#        122274
#        141915
#        155385
#        172792
#        190086
#        207055
#        228439
#        248774
#        275856
#
# Disc length: 4004 seconds
#
# Revision: 0
# Processed by: cddbd v1.5.2PL0 Copyright (c) Steve Scherf et al.
# Submitted via: ExactAudioCopyFreeDBPlugin 1.0
#
DISCID=d10fa20f
DTITLE=Wu-Tang Clan - The Wu-Tang Classics Vol 2
DYEAR=2019
DGENRE=Instrumental
TTITLE0=Careful
TTITLE1=Liquid Swordz
TTITLE2=Labels
TTITLE3=Da Mystery Of Chessboxin'
TTITLE4=Uzi
TTITLE5=Gravel Pit
TTITLE6=Verbal Intercourse
TTITLE7=Hollow Bones
TTITLE8=Brooklyn Zoo
TTITLE9=Y'all Been Warned
TTITLE10=Cross My Heart
TTITLE11=Nutmeg
TTITLE12=Casablanca
TTITLE13=Daytona 500
TTITLE14=The Heart Gently Weeps
EXTD=
EXTT0=
EXTT1=
EXTT2=
EXTT3=
EXTT4=
EXTT5=
EXTT6=
EXTT7=
EXTT8=
EXTT9=
EXTT10=
EXTT11=
EXTT12=
EXTT13=
EXTT14=
PLAYORDER=
